/* XPM */
static char * al_xpm[] = {
"7 10 2 1",
" 	c None",
".	c #000000",
" ...   ",
".   .  ",
"   ..  ",
" .. .  ",
".   .  ",
".  ..  ",
"... .. ",
"    .  ",
"    .  ",
"    ..."};
