/* XPM */
static char * cl_xpm[] = {
"5 11 2 1",
" 	c None",
".	c #000000",
"   . ",
"  .  ",
"  .  ",
"     ",
" ... ",
".   .",
".    ",
".    ",
".    ",
".   .",
" ... "};
