/* XPM */
static char * eu_xpm[] = {
"9 14 2 1",
" 	c None",
".	c #000000",
"........ ",
"  .    . ",
"  .      ",
"  .      ",
"  .   .  ",
"  .....  ",
"  .   .  ",
"  .      ",
"  .     .",
"  .    . ",
"........ ",
"      .  ",
"      .  ",
"      ..."};
