/* XPM */
static char * L_L_xpm[] = {
"3 11 2 1",
" 	c None",
".	c #000000",
" . ",
".. ",
" . ",
" . ",
" ..",
" . ",
".. ",
" . ",
" . ",
" . ",
"..."};
