/* XPM */
static char * ol_xpm[] = {
"6 11 2 1",
" 	c None",
".	c #000000",
"    . ",
"   .  ",
"   .  ",
"      ",
"  ..  ",
" .  . ",
".    .",
".    .",
".    .",
" .  . ",
"  ..  "};
