/* XPM */
static char * ou_xpm[] = {
"10 15 2 1",
" 	c None",
".	c #000000",
"     .    ",
"    .     ",
"    .     ",
"          ",
"   ....   ",
"  .    .  ",
" .      . ",
".        .",
".        .",
".        .",
".        .",
".        .",
" .      . ",
"  .    .  ",
"   ....   "};
