/* XPM */
static char * sl_xpm[] = {
"4 11 2 1",
" 	c None",
".	c #000000",
"   .",
"  . ",
"  . ",
"    ",
" ...",
".  .",
".   ",
" .. ",
"   .",
".  .",
"... "};
