/* XPM */
static char * su_xpm[] = {
"7 15 2 1",
" 	c None",
".	c #000000",
"    .  ",
"   .   ",
"   .   ",
"       ",
"  ... .",
" .   ..",
".     .",
".      ",
" ..    ",
"   ..  ",
"     . ",
"      .",
".     .",
"..   . ",
". ...  "};
