/* XPM */
static char * z1l_xpm[] = {
"6 11 2 1",
" 	c None",
".	c #000000",
"    . ",
"   .  ",
"   .  ",
"      ",
" .....",
" .  . ",
"   .  ",
"  .   ",
"  .   ",
" .   .",
"......"};
