/* XPM */
static char * z1u_xpm[] = {
"9 15 2 1",
" 	c None",
".	c #000000",
"     .   ",
"    .    ",
"    .    ",
"         ",
" ....... ",
" .    .  ",
" .    .  ",
"     .   ",
"    .    ",
"    .    ",
"   .     ",
"  .      ",
" .      .",
" .     . ",
"........ "};
