/* XPM */
static char * z2l_xpm[] = {
"6 9 2 1",
" 	c None",
".	c #000000",
"   .  ",
"      ",
" .....",
" .  . ",
"   .  ",
"  .   ",
"  .   ",
" .   .",
"......"};
