/* XPM */
static char * delstr_xpm[] = {
"16 16 26 1",
" 	c None",
".	c #FFFFFF",
"+	c #FF0000",
"@	c #000000",
"#	c #080808",
"$	c #929292",
"%	c #CECECE",
"&	c #303030",
"*	c #020202",
"=	c #D4D4D4",
"-	c #191919",
";	c #2E2E2E",
">	c #8E8E8E",
",	c #F8F8F8",
"'	c #7E7E7E",
")	c #0E0E0E",
"!	c #010101",
"~	c #040404",
"{	c #F5F5F5",
"]	c #CDCDCD",
"^	c #C5C5C5",
"/	c #909090",
"(	c #F9F9F9",
"_	c #676767",
":	c #696969",
"<	c #0C0C0C",
"................",
"...+++.....+++..",
"....++.....++...",
".....++...++....",
".....+++.+++....",
"......++.++.....",
".@#$..+++++.%&*@",
"..=-..@+++..;>,.",
"')@!..@+++..~{..",
"#]^@..++++..;/(.",
"_#:@..++<++.];!@",
".....++..++.....",
"....+++...++....",
"....++....+++...",
"...++......++...",
"..+++......+++.."};
