/* XPM */
static char * newstr_xpm[] = {
"16 16 36 1",
" 	c None",
".	c #FFFFFF",
"+	c #FF0000",
"@	c #000000",
"#	c #080808",
"$	c #929292",
"%	c #5E5E5E",
"&	c #0D0D0D",
"*	c #ABABAB",
"=	c #CECECE",
"-	c #303030",
";	c #020202",
">	c #D4D4D4",
",	c #191919",
"'	c #B4B4B4",
")	c #282828",
"!	c #2E2E2E",
"~	c #8E8E8E",
"{	c #F8F8F8",
"]	c #7E7E7E",
"^	c #0E0E0E",
"/	c #010101",
"(	c #F9F9F9",
"_	c #070707",
":	c #040404",
"<	c #F5F5F5",
"[	c #CDCDCD",
"}	c #C5C5C5",
"|	c #B6B6B6",
"1	c #272727",
"2	c #909090",
"3	c #676767",
"4	c #696969",
"5	c #5C5C5C",
"6	c #0C0C0C",
"7	c #A9A9A9",
".............+..",
"...........+.+.+",
"............+++.",
"......@.....+++.",
"......@....+.+.+",
"......@......+..",
".@#$..@%&*..=-;@",
"..>,..@'')..!~{.",
"]^@/..@({_..:<..",
"#[}@..@||1..!2(.",
"3#4@..@567..[!/@",
"................",
"................",
"................",
"................",
"................"};
